<svg width="48" height="52" xmlns="http://www.w3.org/2000/svg" xmlns:xlink="http://www.w3.org/1999/xlink" xml:space="preserve" overflow="hidden"><g transform="translate(-616 -334)"><path d="M24.1699 25.7598C24.4707 25.7598 24.707 25.9961 24.707 26.2969L24.707 46.9648C24.707 47.2441 24.4707 47.4805 24.1699 47.4805 23.8906 47.4805 23.6543 47.2441 23.6543 46.9648L23.6543 26.2969C23.6543 25.9961 23.8906 25.7598 24.1699 25.7598ZM24.1699 4.87695C35.3633 4.87695 44.4941 14.0293 44.4941 25.2227 44.4941 31.6035 41.5293 37.3613 36.8672 41.0566 36.2441 41.5508 35.5566 40.6914 36.1582 40.2188 40.5625 36.7812 43.3984 31.3242 43.3984 25.2227 43.3984 14.6094 34.7832 5.99414 24.1699 5.99414 13.5781 5.99414 4.94141 14.6094 4.94141 25.2227 4.94141 31.3242 7.82031 36.7598 12.1816 40.2188 12.7832 40.6914 12.1172 41.5508 11.4727 41.0566 6.83203 37.3398 3.8457 31.6035 3.8457 25.2227 3.8457 14.0293 12.998 4.87695 24.1699 4.87695Z" stroke="#7F7F7F" stroke-width="5.66667" fill="#7F7F7F" transform="matrix(1 0 0 -1 616 386.357)"/></g></svg>